<svg xmlns="http://www.w3.org/2000/svg" fill-rule="evenodd" stroke-miterlimit="1.41" viewBox="0 0 3840 1253" clip-rule="evenodd" stroke-linejoin="round"><path fill="#11DADA" d="M0 0h3840v1253H0z"/><path fill-rule="nonzero" d="M882.26 517.12h15.1l25.6 46.33 25.53-46.33h15.2L930 574.98v47.1h-14.2V575l-33.54-57.86zm127.4 35.28c-6.56 0-11.53 2.57-14.9 7.68-3.38 5.1-5.06 12.68-5.06 22.7 0 10 1.68 17.55 5.06 22.68 3.37 5.14 8.34 7.7 14.9 7.7 6.6 0 11.6-2.56 14.98-7.7 3.38-5.13 5.06-12.7 5.06-22.67 0-10.1-1.68-17.6-5.06-22.8-3.37-5.1-8.37-7.7-14.98-7.7zm0-10.96c10.93 0 19.28 3.54 25.07 10.62 5.8 7.08 8.68 17.32 8.68 30.73 0 13.4-2.8 23.7-8.6 30.7-5.7 7-14.1 10.6-25.1 10.6-10.9 0-19.2-3.5-25-10.6-5.7-7.1-8.6-17.3-8.6-30.8 0-13.4 2.9-23.7 8.7-30.8 5.8-7.1 14.1-10.6 25.1-10.6zm57.1 50.84v-48.8h12.93v48.8c0 7.08 1.2 12.28 3.7 15.6 2.5 3.34 6.4 5 11.6 5 6.1 0 10.7-2.14 14-6.43 3.2-4.3 4.8-10.44 4.8-18.46v-44.6h13V622h-13v-11.8c-2.3 4.55-5.5 8-9.4 10.34s-8.6 3.5-13.9 3.5c-8.1 0-14.1-2.6-18-7.9-4-5.27-5.9-13.25-5.9-23.94zm154.2-32.68c-2.77-2.17-5.6-3.74-8.44-4.73-2.86-.98-6-1.47-9.43-1.47-8.1 0-14.3 2.53-18.5 7.6-4.3 5.05-6.4 12.37-6.4 21.93v39.16h-13v-78.8h13v15.4c2.1-5.6 5.4-9.9 9.9-12.9s9.8-4.5 15.9-4.5c3.2 0 6.1.4 8.9 1.2 2.7.8 5.4 2 7.9 3.7v13.2zm160.6-13.5v12.64c-3.7-2.15-7.44-3.77-11.2-4.85-3.74-1.1-7.56-1.7-11.45-1.7-5.8 0-10.2.9-13.1 2.8-2.9 1.9-4.3 4.8-4.3 8.7 0 3.5 1.1 6.1 3.3 7.8 2.2 1.7 7.6 3.4 16.1 5l5.2 1c6.5 1.2 11.3 3.6 14.6 7.3 3.3 3.6 5 8.4 5 14.2 0 7.8-2.7 13.8-8.3 18.2-5.5 4.4-13.2 6.6-23 6.6-3.9 0-7.9-.4-12.2-1.3-4.3-.8-8.9-2.1-13.8-3.7v-13.3c4.9 2.5 9.5 4.3 13.9 5.6 4.4 1.2 8.6 1.8 12.5 1.8 5.7 0 10.2-1.2 13.3-3.5 3.1-2.3 4.7-5.6 4.7-9.7 0-6-5.7-10.2-17.2-12.5l-.6-.2-4.8-1c-7.4-1.4-12.9-3.9-16.3-7.3-3.4-3.5-5.1-8.2-5.1-14.1 0-7.6 2.6-13.4 7.7-17.5s12.4-6.2 21.9-6.2c4.3 0 8.3.4 12.2 1.1 3.9.8 7.7 1.9 11.5 3.5zm92.87 72c-3.47 2-7.04 3.5-10.72 4.52-3.6 1-7.4 1.5-11.2 1.5-12.2 0-21.7-3.64-28.6-10.96-6.8-7.3-10.3-17.43-10.3-30.37 0-13 3.5-23.1 10.3-30.4 6.9-7.3 16.4-11 28.6-11 3.8 0 7.5.5 11.1 1.5 3.6 1 7.3 2.5 10.9 4.5V561c-3.4-3.03-6.8-5.24-10.3-6.6-3.4-1.36-7.3-2.04-11.7-2.04-8.1 0-14.3 2.62-18.7 7.9-4.3 5.22-6.5 12.72-6.5 22.5 0 9.7 2.2 17.16 6.6 22.43 4.4 5.3 10.6 7.9 18.7 7.9 4.5 0 8.6-.7 12.1-2.1 3.6-1.4 6.9-3.6 9.9-6.5V618zm93.3-58.5c-2.76-2.17-5.57-3.74-8.43-4.73-2.86-.98-6-1.47-9.43-1.47-8.06 0-14.22 2.53-18.5 7.6-4.25 5.05-6.4 12.37-6.4 21.93v39.16h-13v-78.8h13v15.4c2.17-5.6 5.5-9.9 9.96-12.9 4.48-3 9.8-4.5 15.93-4.5 3.2 0 6.16.4 8.93 1.2 2.7.8 5.4 2 7.9 3.7v13.2zm84.24 16.65v6.33h-56.04v.42c-.38 10.73 1.68 18.44 6.15 23.13 4.48 4.7 10.8 7.03 18.95 7.03 4.13 0 8.44-.65 12.94-1.97 4.5-1.4 9.3-3.3 14.4-6V618c-4.9 2-9.66 3.5-14.23 4.52-4.57 1-8.98 1.5-13.25 1.5-12.3 0-21.8-3.67-28.7-11-6.9-7.34-10.4-17.45-10.4-30.34 0-12.56 3.3-22.6 10.1-30.1 6.7-7.5 15.7-11.25 27-11.25 10 0 17.9 3.4 23.7 10.2 5.8 6.8 8.8 15 9.2 24.6zm-12.94-3.8c-.56-5.43-2.54-10.13-5.94-14.1-3.4-3.96-8.3-5.94-14.7-5.94-6.3 0-11.4 2.1-15.4 6.2-4.1 4.2-6.3 8.8-6.6 14h42.6zm99.63 3.8v6.33h-56.04v.42c-.37 10.73 1.68 18.44 6.16 23.13 4.47 4.7 10.8 7.03 18.95 7.03 4.12 0 8.43-.65 12.93-1.97 4.5-1.4 9.3-3.3 14.42-6V618c-4.92 2-9.67 3.5-14.24 4.52-4.57 1-9 1.5-13.25 1.5-12.3 0-21.8-3.67-28.7-11-6.9-7.34-10.4-17.45-10.4-30.34 0-12.56 3.4-22.6 10.1-30.1s15.7-11.25 27-11.25c10 0 17.9 3.4 23.7 10.2 5.8 6.8 8.8 15 9.2 24.6zm-12.93-3.8c-.57-5.43-2.55-10.13-5.94-14.1-3.4-3.96-8.3-5.94-14.7-5.94-6.3 0-11.4 2.1-15.4 6.2-4.1 4.2-6.3 8.8-6.6 14h42.6zm94.77.85v48.8h-13v-48.8c0-7.08-1.24-12.28-3.73-15.6-2.48-3.34-6.37-5-11.67-5-6.05 0-10.7 2.14-13.96 6.43-3.25 4.3-4.88 10.44-4.88 18.46v44.5h-12.94v-78.8h12.94v11.8c2.3-4.5 5.4-7.9 9.35-10.3 4-2.3 8.6-3.5 14-3.5 8.1 0 14 2.6 18 7.9 4 5.2 6 13.2 6 23.9zm121.72-29.68h33.12v68.42H2001v10.05h-64.27V612h25.67v-58.36h-20.18V543.6zm20.18-30.58h12.94v16.3h-12.94v-16.3zm112.7 33.06v12.64c-3.7-2.15-7.42-3.77-11.17-4.85-3.75-1.1-7.57-1.7-11.46-1.7-5.86 0-10.23.9-13.1 2.8-2.9 1.9-4.34 4.8-4.34 8.7 0 3.5 1.08 6.1 3.23 7.8 2.16 1.7 7.53 3.4 16.1 5l5.2 1c6.43 1.2 11.3 3.6 14.6 7.3 3.3 3.6 4.96 8.4 4.96 14.2 0 7.8-2.77 13.8-8.3 18.2-5.53 4.4-13.22 6.6-23.06 6.6-3.9 0-7.97-.4-12.24-1.3-4.26-.8-8.88-2.1-13.85-3.7v-13.3c4.83 2.5 9.45 4.3 13.85 5.6 4.4 1.2 8.58 1.8 12.52 1.8 5.72 0 10.15-1.2 13.3-3.5 3.13-2.3 4.7-5.6 4.7-9.7 0-6-5.74-10.2-17.23-12.5l-.5-.2-4.8-1c-7.4-1.4-12.9-3.9-16.3-7.3-3.4-3.5-5.1-8.2-5.1-14.1 0-7.6 2.6-13.4 7.7-17.5s12.4-6.2 21.9-6.2c4.2 0 8.3.4 12.2 1.1 3.9.8 7.7 1.9 11.5 3.5zm148.16-25.12v22.36h29.4v10.06h-29.4v42.75c0 5.8 1.1 9.87 3.3 12.16 2.2 2.3 6.05 3.5 11.53 3.5h14.5v10.4h-15.8c-9.7 0-16.6-1.9-20.6-5.8s-6-10.6-6-20.1v-42.8h-21v-10.1h21V521h12.9zm86.84 31.42c-6.57 0-11.54 2.57-14.9 7.68-3.4 5.1-5.08 12.68-5.08 22.7 0 10 1.7 17.55 5.07 22.68 3.3 5.14 8.3 7.7 14.9 7.7s11.6-2.56 14.9-7.7c3.4-5.13 5-12.7 5-22.67 0-10.1-1.7-17.6-5.1-22.8-3.4-5.1-8.4-7.7-15-7.7zm0-10.96c10.9 0 19.27 3.54 25.06 10.62 5.8 7.08 8.68 17.32 8.68 30.73 0 13.4-2.88 23.7-8.64 30.7-5.77 7-14.14 10.6-25.1 10.6-10.93 0-19.27-3.5-25.04-10.6-5.76-7.1-8.65-17.3-8.65-30.8 0-13.4 2.9-23.7 8.7-30.8 5.8-7.1 14.1-10.6 25.1-10.6zm86.7 10.96c-6.57 0-11.54 2.57-14.92 7.68-3.37 5.1-5.06 12.68-5.06 22.7 0 10 1.7 17.55 5.06 22.68 3.38 5.14 8.35 7.7 14.9 7.7 6.62 0 11.6-2.56 14.98-7.7 3.38-5.13 5.07-12.7 5.07-22.67 0-10.1-1.7-17.6-5.07-22.8-3.37-5.1-8.36-7.7-14.97-7.7zm0-10.96c10.9 0 19.27 3.54 25.06 10.62 5.78 7.08 8.68 17.32 8.68 30.73 0 13.4-2.88 23.7-8.65 30.7-5.8 7-14.2 10.6-25.1 10.6-11 0-19.3-3.5-25.1-10.6-5.8-7.1-8.7-17.3-8.7-30.8 0-13.4 2.9-23.7 8.6-30.8 5.7-7.1 14.1-10.6 25-10.6zm130.07 1.9h12.8l13.7 63.64 11.25-40.64h11.04l11.4 40.64 13.7-63.64h12.8l-18.42 78.75h-12.38l-12.58-43.2-12.52 43.1h-12.37l-18.5-78.8zm108.9.28h33.13v68.42h25.66v10.05h-64.26V612h25.66v-58.36h-20.18V543.6zm20.2-30.58h12.93v16.3h-12.94v-16.3zm104.63 40.36v-40.7h12.92v109.4h-12.93v-9.92c-2.2 3.9-5.1 6.85-8.7 8.9-3.6 2.03-7.7 3.05-12.4 3.05-9.5 0-17-3.7-22.5-11.07-5.5-7.38-8.2-17.57-8.2-30.55 0-12.8 2.7-22.8 8.2-30.1 5.5-7.3 12.9-10.9 22.4-10.9 4.7 0 8.9 1 12.5 3.1 3.6 2.1 6.4 5 8.5 8.9zm-38.05 29.4c0 10.02 1.6 17.6 4.78 22.7 3.18 5.1 7.9 7.66 14.13 7.66 6.24 0 10.98-2.57 14.24-7.73s4.9-12.7 4.9-22.64c0-10-1.64-17.6-4.9-22.7-3.26-5.2-8-7.7-14.24-7.7-6.23 0-10.95 2.5-14.13 7.6-3.2 5.1-4.78 12.7-4.78 22.7zm143.15-6.55v6.33h-56.04v.42c-.37 10.73 1.68 18.44 6.16 23.13 4.47 4.7 10.8 7.03 18.94 7.03 4.13 0 8.44-.65 12.94-1.97 4.5-1.4 9.3-3.3 14.42-6V618c-4.92 2-9.67 3.5-14.24 4.52-4.57 1-9 1.5-13.26 1.5-12.23 0-21.8-3.67-28.68-11-6.9-7.34-10.34-17.45-10.34-30.34 0-12.56 3.38-22.6 10.13-30.1 6.75-7.5 15.75-11.25 27-11.25 10.03 0 17.94 3.4 23.73 10.2 5.78 6.8 8.87 15 9.24 24.6zm-12.94-3.8c-.56-5.43-2.54-10.13-5.94-14.1-3.4-3.96-8.28-5.94-14.66-5.94-6.23 0-11.36 2.1-15.4 6.2-4.03 4.2-6.23 8.8-6.6 14h42.6zM2901 593.7h24.75v28.4H2901zM638.27 655.9v26.3h10.97c4.38 0 7.8-1.17 10.24-3.48 2.46-2.3 3.68-5.55 3.68-9.7 0-4.16-1.2-7.4-3.65-9.68-2.4-2.3-5.8-3.45-10.2-3.45h-11zm-9.47-7.8h20.44c7.8 0 13.74 1.78 17.77 5.33 4.1 3.55 6.1 8.74 6.1 15.6 0 6.9-2 12.1-6 15.64-4 3.53-9.9 5.3-17.8 5.3h-11v28.12h-9.4v-70zm82.27 51c0 3.88.7 6.8 2.13 8.77 1.42 1.97 3.53 2.96 6.3 2.96h10.1v7.26h-10.94c-5.15 0-9.14-1.7-11.97-5-2.9-3.3-4.3-8-4.3-14.1v-47.5h-13.8v-6.8H711V699zm76.6-11.57v4.22H750.3v.28c-.25 7.16 1.12 12.3 4.1 15.42 3 3.13 7.2 4.7 12.64 4.7 2.75 0 5.62-.45 8.62-1.32 3-.88 6.2-2.2 9.6-4v8.6c-3.27 1.34-6.43 2.34-9.48 3-3.05.7-6 1.02-8.83 1.02-8.16 0-14.54-2.44-19.13-7.33-4.6-4.9-6.9-11.64-6.9-20.23 0-8.4 2.26-15.1 6.76-20.1s10.5-7.5 18-7.5c6.7 0 11.96 2.2 15.82 6.8 3.86 4.5 5.9 10 6.16 16.4zm-8.63-2.53c-.38-3.63-1.7-6.76-3.96-9.4-2.27-2.64-5.53-3.96-9.78-3.96-4.15 0-7.57 1.38-10.26 4.13-2.7 2.75-4.16 5.84-4.4 9.28l28.4-.05zm46.83 6.7H823c-5.02 0-8.8.9-11.36 2.65-2.55 1.77-3.82 4.4-3.82 7.9 0 3.16.95 5.6 2.86 7.36 1.9 1.8 4.55 2.7 7.92 2.7 4.75 0 8.5-1.6 11.2-4.9 2.72-3.3 4.1-7.8 4.13-13.6v-1.9h-8.06zm16.73-3.56v29.95h-8.67v-7.8c-1.84 3.1-4.16 5.4-6.96 6.9s-6.2 2.2-10.2 2.2c-5.34 0-9.6-1.5-12.8-4.5-3.18-3-4.77-7.1-4.77-12.1 0-5.9 1.96-10.3 5.88-13.3 3.92-3.1 9.68-4.6 17.27-4.6h11.58v-1.4c-.03-4.2-1.1-7.3-3.2-9.2-2.08-1.9-5.43-2.9-10.02-2.9-2.9 0-5.9.4-8.9 1.3-3 .8-5.9 2-8.7 3.7V668c3.2-1.2 6.3-2.13 9.2-2.74 3-.6 5.8-.9 8.5-.9 4.4 0 8.1.63 11.2 1.9 3.1 1.3 5.6 3.2 7.5 5.78 1.2 1.56 2.1 3.5 2.6 5.78.5 2.3.8 5.75.8 10.34zm53.77-20.72v8.44c-2.47-1.44-4.96-2.52-7.46-3.24-2.5-.7-5-1.07-7.6-1.07-3.9 0-6.8.63-8.7 1.9-1.9 1.26-2.9 3.2-2.9 5.78 0 2.35.7 4.1 2.2 5.25 1.5 1.16 5.1 2.3 10.8 3.38l3.5.66c4.3.8 7.6 2.43 9.8 4.87 2.2 2.4 3.3 5.6 3.3 9.5 0 5.2-1.8 9.2-5.5 12.1-3.7 2.9-8.8 4.4-15.4 4.4-2.6 0-5.3-.3-8.1-.8-2.8-.6-5.9-1.4-9.2-2.5v-8.9c3.3 1.6 6.3 2.9 9.3 3.7 3 .8 5.8 1.2 8.4 1.2 3.8 0 6.8-.8 8.9-2.3 2.1-1.6 3.18-3.7 3.18-6.5 0-4-3.8-6.8-11.5-8.3l-.4-.1-3.24-.7c-4.93-1-8.6-2.6-10.84-4.9-2.3-2.3-3.45-5.4-3.45-9.4 0-5 1.7-8.9 5.1-11.7 3.46-2.8 8.3-4.1 14.6-4.1 2.8 0 5.5.2 8.1.8 2.6.5 5.18 1.3 7.68 2.3zm64.68 20.1v4.23H923.7v.28c-.25 7.16 1.1 12.3 4.1 15.42 2.98 3.13 7.2 4.7 12.63 4.7 2.75 0 5.62-.45 8.62-1.32 3-.88 6.2-2.2 9.6-4v8.6c-3.27 1.34-6.43 2.34-9.48 3-3.05.7-6 1.02-8.83 1.02-8.16 0-14.54-2.44-19.13-7.33-4.5-4.9-6.8-11.64-6.8-20.23 0-8.4 2.3-15.1 6.8-20.1s10.5-7.5 18-7.5c6.7 0 12 2.2 15.8 6.8 3.9 4.5 5.9 10 6.2 16.4zm-8.62-2.52c-.38-3.63-1.7-6.76-3.96-9.4-2.27-2.64-5.52-3.96-9.77-3.96-4.16 0-7.58 1.38-10.27 4.13-2.7 2.75-4.16 5.84-4.4 9.28l28.4-.05zm125.87-8.58c-1.86-1.44-3.73-2.48-5.64-3.14-1.9-.66-4-.98-6.28-.98-5.37 0-9.48 1.68-12.33 5.06-2.84 3.37-4.26 8.25-4.26 14.62v26.1h-8.7v-52.5h8.6v10.28c1.4-3.72 3.6-6.57 6.6-8.56 3-1.98 6.5-2.97 10.6-2.97 2.1 0 4.1.26 5.9.8 1.8.53 3.6 1.35 5.3 2.48v8.9zm56.14 11.1v4.23h-37.35v.28c-.3 7.16 1.1 12.3 4.1 15.42 2.9 3.13 7.1 4.7 12.6 4.7 2.7 0 5.6-.45 8.6-1.32 3-.88 6.2-2.2 9.6-4v8.6c-3.3 1.34-6.5 2.34-9.5 3-3.1.7-6 1.02-8.9 1.02-8.2 0-14.6-2.44-19.2-7.33-4.6-4.9-6.9-11.64-6.9-20.23 0-8.4 2.2-15.1 6.7-20.1s10.5-7.5 18-7.5c6.7 0 11.9 2.2 15.8 6.8 3.8 4.5 5.9 10 6.1 16.4zm-8.62-2.52c-.38-3.63-1.7-6.76-3.96-9.4-2.27-2.64-5.52-3.96-9.77-3.96-4.2 0-7.6 1.38-10.3 4.13-2.7 2.75-4.2 5.84-4.4 9.28l28.4-.05zm59.53-17.58v8.44c-2.47-1.44-4.95-2.52-7.45-3.24-2.5-.7-5.05-1.07-7.64-1.07-3.9 0-6.82.63-8.74 1.9-1.93 1.26-2.9 3.2-2.9 5.78 0 2.35.73 4.1 2.17 5.25 1.4 1.16 5 2.3 10.7 3.38l3.4.66c4.2.8 7.5 2.43 9.7 4.87 2.2 2.4 3.3 5.6 3.3 9.5 0 5.2-1.9 9.2-5.6 12.1-3.7 2.9-8.8 4.4-15.4 4.4-2.6 0-5.4-.3-8.2-.8s-5.9-1.4-9.3-2.5v-8.9c3.2 1.6 6.3 2.9 9.2 3.7 2.9.8 5.7 1.2 8.3 1.2 3.8 0 6.8-.8 8.8-2.3 2.1-1.6 3.1-3.7 3.1-6.5 0-4-3.8-6.8-11.5-8.3l-.4-.1-3.2-.7c-5-1-8.6-2.6-10.9-4.9-2.3-2.3-3.5-5.4-3.5-9.4 0-5 1.7-8.9 5.1-11.7 3.4-2.8 8.3-4.1 14.6-4.1 2.8 0 5.5.2 8.1.8 2.6.5 5.1 1.3 7.6 2.3zm27-1.64h22.08v45.6h17.1v6.7h-42.84v-6.7h17.1v-38.9h-13.5v-6.7zm13.45-20.4h8.63v10.9h-8.63v-10.9zm40.18 20.12h38.1v7.87l-30.14 37.7h30.15v7.02h-39.3v-8l30.1-37.7h-29.1v-6.9zm99.65 22.03v4.22h-37.36v.28c-.25 7.16 1.12 12.3 4.1 15.42 3 3.13 7.2 4.7 12.64 4.7 2.8 0 5.7-.45 8.7-1.32 3-.88 6.2-2.2 9.6-4v8.6c-3.2 1.34-6.4 2.34-9.5 3-3 .7-6 1.02-8.8 1.02-8.1 0-14.5-2.44-19.1-7.33-4.6-4.9-6.9-11.64-6.9-20.23 0-8.4 2.3-15.1 6.8-20.1s10.5-7.5 18-7.5c6.7 0 12 2.2 15.8 6.8 3.9 4.5 5.9 10 6.2 16.4zM1357 685c-.37-3.63-1.7-6.76-3.95-9.4-2.27-2.64-5.53-3.96-9.78-3.96-4.15 0-7.58 1.38-10.26 4.13-2.6 2.75-4.1 5.84-4.4 9.28l28.4-.05zm100.5-34.3v14.9h19.6v6.7h-19.6v28.5c0 3.87.74 6.57 2.2 8.1 1.48 1.54 4.04 2.3 7.7 2.3h9.7v6.9h-10.55c-6.46 0-11.03-1.3-13.68-3.9-2.66-2.6-4-7.06-4-13.4v-28.5h-14v-6.7h14v-14.9h8.64zm78.3 34.86v32.53h-8.68v-32.6c0-4.8-.83-8.2-2.5-10.4-1.64-2.3-4.24-3.4-7.77-3.4-4.03 0-7.13 1.4-9.3 4.3-2.18 2.8-3.26 6.9-3.26 12.3V718h-8.7v-72.9h8.6v28.3c1.5-3 3.6-5.28 6.2-6.8 2.6-1.57 5.7-2.34 9.3-2.34 5.3 0 9.3 1.76 11.9 5.27 2.6 3.52 3.9 8.84 3.9 15.96zm61.02 1.97v4.22h-37.36v.28c-.25 7.16 1.12 12.3 4.1 15.42 3 3.13 7.2 4.7 12.63 4.7 2.7 0 5.6-.45 8.6-1.32 3-.88 6.2-2.2 9.6-4v8.6c-3.3 1.34-6.5 2.34-9.5 3-3.1.7-6 1.02-8.9 1.02-8.2 0-14.6-2.44-19.2-7.33-4.6-4.9-6.9-11.64-6.9-20.23 0-8.4 2.2-15.1 6.7-20.1s10.5-7.5 18-7.5c6.7 0 11.9 2.2 15.8 6.8 3.8 4.5 5.9 10 6.1 16.4zm-8.63-2.53c-.4-3.63-1.7-6.76-4-9.4-2.3-2.64-5.5-3.96-9.8-3.96-4.2 0-7.6 1.38-10.3 4.13-2.7 2.75-4.2 5.84-4.4 9.28l28.4-.05zm71.7-19.4h8.5l9.1 42.42 7.5-27.1h7.3l7.6 27.1 9.1-42.43h8.5l-12.3 52.5h-8.2l-8.4-28.8-8.3 28.8h-8.3l-12.3-52.5zm72.6.18h22.1v45.6h17.1v6.7h-42.9v-6.7h17.1v-38.9h-13.5v-6.7zm13.4-20.4h8.6v10.9h-8.7v-10.9zm78.8 40.18v32.53h-8.7v-32.6c0-4.8-.9-8.2-2.5-10.4-1.7-2.3-4.3-3.4-7.8-3.4-4.1 0-7.2 1.4-9.3 4.3-2.2 2.8-3.3 6.9-3.3 12.3V718h-8.6v-52.5h8.6v7.88c1.5-3 3.6-5.3 6.2-6.83s5.7-2.3 9.3-2.3c5.3 0 9.3 1.76 12 5.27 2.6 3.52 3.9 8.84 3.9 15.96zm48.7-13.26v-27.14h8.6v72.93h-8.7v-6.7c-1.4 2.6-3.4 4.5-5.7 5.9-2.4 1.3-5.2 2-8.3 2-6.3 0-11.3-2.5-15-7.4-3.7-5-5.5-11.7-5.5-20.4 0-8.6 1.8-15.3 5.4-20.1 3.6-4.9 8.6-7.3 14.9-7.3 3.1 0 5.9.7 8.3 2 2.4 1.3 4.3 3.3 5.7 5.9zm-25.4 19.6c0 6.68 1 11.72 3.2 15.13 2.1 3.4 5.2 5.1 9.4 5.1 4.1 0 7.3-1.7 9.5-5.15 2.2-3.43 3.2-8.46 3.2-15.1 0-6.65-1.1-11.7-3.3-15.1-2.2-3.43-5.4-5.14-9.5-5.14-4.2 0-7.3 1.7-9.4 5.1-2.1 3.42-3.2 8.46-3.2 15.15zm71.8-20.26c-4.4 0-7.7 1.7-10 5.1-2.3 3.42-3.4 8.46-3.4 15.15 0 6.6 1.1 11.7 3.4 15.1 2.2 3.4 5.5 5.1 9.9 5.1s7.7-1.7 9.9-5.2c2.3-3.4 3.4-8.5 3.4-15.1 0-6.7-1.1-11.8-3.4-15.2-2.2-3.4-5.6-5.1-10-5.1zm0-7.3c7.2 0 12.8 2.35 16.7 7.07 3.8 4.8 5.8 11.6 5.8 20.5 0 9-2 15.8-5.8 20.5-3.9 4.7-9.4 7.1-16.7 7.1-7.3 0-12.9-2.3-16.7-7-3.9-4.7-5.8-11.5-5.8-20.5 0-8.9 1.9-15.7 5.7-20.5 3.8-4.7 9.4-7 16.7-7zm28.9 1.26h8.5l9.1 42.42 7.5-27.1h7.3l7.6 27.1 9.1-42.43h8.5l-12.3 52.5h-8.2l-8.4-28.8-8.4 28.8h-8.2l-12.3-52.5zm144.3-14.9v14.9h19.6v6.7H2093v28.5c0 3.87.75 6.57 2.2 8.1 1.5 1.54 4.05 2.3 7.7 2.3h9.7v6.9h-10.54c-6.46 0-11-1.3-13.7-3.9-2.63-2.6-3.96-7.06-3.96-13.4v-28.5h-14.02v-6.7h14.02v-14.9h8.6zm57.9 20.94c-4.4 0-7.7 1.7-10 5.1-2.3 3.42-3.4 8.46-3.4 15.15 0 6.6 1.1 11.7 3.3 15.1 2.2 3.4 5.5 5.1 9.9 5.1s7.7-1.7 10-5.2c2.2-3.4 3.3-8.5 3.3-15.1 0-6.7-1.1-11.8-3.4-15.2-2.3-3.4-5.6-5.1-10-5.1zm0-7.3c7.3 0 12.8 2.35 16.7 7.07 3.8 4.8 5.8 11.6 5.8 20.5 0 9-2 15.8-5.8 20.5-3.9 4.7-9.5 7.1-16.8 7.1-7.3 0-12.9-2.3-16.7-7-3.9-4.7-5.8-11.5-5.8-20.5 0-8.9 1.9-15.7 5.8-20.5 3.8-4.7 9.4-7 16.7-7zm128.6-19.1h8.6v10.93h-8.7v-10.92zm-5.6-.1v7.2h-8.5c-3.1 0-5.2.62-6.5 1.9-1.2 1.25-1.8 3.5-1.8 6.7v4.75h30.9v52.4h-8.7v-45.8H2257v45.8h-8.6v-45.8h-9.4v-6.7h9.4v-3.7c0-5.8 1.3-10 3.95-12.7 2.68-2.7 6.8-4.1 12.4-4.1h9zm50.2 5.56v14.9h19.6v6.7h-19.6v28.5c0 3.87.7 6.57 2.2 8.1 1.4 1.54 4 2.3 7.7 2.3h9.7v6.9h-10.6c-6.5 0-11-1.3-13.7-3.9-2.7-2.6-4-7.06-4-13.4v-28.5h-14v-6.7h14v-14.9h8.6zm121.2 6.03l-22.1 37h22v-37zm-1.6-8.62h11v45.7h9.3v7.7h-9.3v16.7h-9.5v-16.7H2416v-8.9l28.13-44.3zm35.9-2.9h8.9v42.3l22.7-21.8h10.5l-20.7 19.8 23.9 32.7h-10.6l-19.4-27.1-6.4 6.1v21.1h-8.9v-73zm158.7 31.3c-1.9-1.4-3.7-2.5-5.6-3.1-1.9-.6-4-1-6.3-1-5.4 0-9.5 1.7-12.3 5.1s-4.3 8.3-4.3 14.7v26.1h-8.7v-52.5h8.6V676c1.44-3.73 3.65-6.58 6.64-8.57 3-2 6.5-2.98 10.6-2.98 2.14 0 4.1.27 5.97.8 1.8.54 3.6 1.36 5.3 2.5v8.82zm56.1 11.1v4.3h-37.36v.3c-.25 7.2 1.1 12.3 4.1 15.5 3 3.1 7.2 4.7 12.6 4.7 2.8 0 5.66-.4 8.66-1.3s6.2-2.2 9.6-4v8.6c-3.3 1.4-6.45 2.4-9.5 3-3.04.7-6 1-8.83 1-8.16 0-14.5-2.4-19.1-7.3-4.6-4.9-6.9-11.6-6.9-20.2 0-8.4 2.3-15 6.8-20s10.5-7.5 18-7.5c6.7 0 12 2.3 15.8 6.8 3.86 4.5 5.9 10 6.16 16.4zm-8.6-2.5c-.38-3.6-1.7-6.7-3.97-9.4-2.26-2.6-5.5-3.9-9.77-3.9-4.16 0-7.6 1.4-10.27 4.2-2.7 2.8-4.2 5.9-4.4 9.3h28.4zm59.53-17.5v8.4c-2.47-1.4-4.96-2.5-7.46-3.2-2.5-.7-5-1.1-7.6-1.1-3.9 0-6.84.7-8.76 1.9-1.97 1.3-2.9 3.2-2.9 5.8 0 2.4.7 4.1 2.1 5.3 1.45 1.2 5 2.3 10.75 3.4l3.4.6c4.3.8 7.5 2.4 9.7 4.9 2.2 2.4 3.3 5.6 3.3 9.5 0 5.2-1.8 9.3-5.5 12.2-3.7 2.9-8.8 4.4-15.4 4.4-2.6 0-5.3-.2-8.1-.8-2.8-.5-5.9-1.3-9.2-2.4v-8.9c3.2 1.6 6.3 2.9 9.2 3.7 3 .8 5.76 1.2 8.4 1.2 3.8 0 6.8-.7 8.9-2.3 2.1-1.5 3.12-3.7 3.12-6.5 0-4-3.88-6.7-11.5-8.3l-.4-.1-3.26-.6c-5-.9-8.6-2.6-10.9-4.9-2.3-2.3-3.4-5.4-3.4-9.4 0-5 1.7-8.9 5.1-11.6 3.4-2.7 8.2-4.1 14.6-4.1 2.8 0 5.5.3 8.1.8 2.6.5 5.1 1.3 7.6 2.3zm41.06 4.2c-4.4 0-7.7 1.7-10 5.1-2.3 3.4-3.4 8.5-3.4 15.2 0 6.7 1.1 11.7 3.3 15.1 2.27 3.4 5.6 5.2 9.96 5.2 4.4 0 7.7-1.7 10-5.1 2.23-3.4 3.4-8.4 3.4-15.1 0-6.7-1.17-11.7-3.4-15.1-2.27-3.4-5.6-5.1-10-5.1zm0-7.3c7.3 0 12.8 2.4 16.7 7.1 3.82 4.8 5.8 11.6 5.8 20.5 0 9-1.9 15.8-5.8 20.5-3.86 4.7-9.4 7.1-16.7 7.1-7.3 0-12.87-2.3-16.7-7-3.8-4.7-5.78-11.5-5.78-20.5 0-8.9 1.9-15.8 5.8-20.5 3.82-4.7 9.4-7.1 16.7-7.1zm62.6 34.8c0 3.9.7 6.8 2.1 8.8 1.4 2 3.5 3 6.3 3h10.2v7.3H2857c-5.2 0-9.2-1.6-12-4.9-2.85-3.3-4.26-8-4.26-14V652H2827v-7h22.45v54.26zm33.22-.8v-32.6h8.6v32.5c0 4.8.8 8.2 2.5 10.4 1.64 2.3 4.23 3.4 7.73 3.4 4.07 0 7.2-1.4 9.34-4.3s3.2-6.9 3.2-12.3v-29.7h8.66v52.4h-8.5v-7.8c-1.55 3.1-3.64 5.4-6.3 6.9-2.6 1.6-5.7 2.4-9.2 2.4-5.4 0-9.4-1.8-12-5.3-2.6-3.5-3.9-8.8-3.9-15.9zm77.4-47.5v14.9h19.6v6.7H2960V701c0 3.87.7 6.57 2.2 8.1 1.46 1.54 4 2.3 7.7 2.3h9.7v6.9h-10.57c-6.48 0-11.04-1.3-13.7-3.9-2.67-2.6-4-7.06-4-13.4v-28.5h-14v-6.7h14v-14.9h8.63zm43.8 15.1h22.1v45.6h17.1v6.7H3000v-6.7h17.1v-38.9H3004V666zm13.44-20.4h8.7v10.9h-8.6v-10.9zm58.4 26.3c-4.3 0-7.6 1.7-9.9 5.1-2.2 3.4-3.34 8.5-3.34 15.2s1.13 11.7 3.4 15.1c2.3 3.5 5.6 5.2 9.95 5.2 4.46 0 7.8-1.7 10-5.1 2.3-3.4 3.4-8.4 3.4-15.1 0-6.7-1.1-11.7-3.36-15.1-2.3-3.4-5.6-5.1-10-5.1zm0-7.3c7.3 0 12.9 2.4 16.8 7.1 3.8 4.8 5.8 11.6 5.8 20.5 0 9-2 15.8-5.8 20.5-3.88 4.7-9.4 7.1-16.77 7.1-7.3 0-12.8-2.3-16.7-7-3.8-4.7-5.74-11.5-5.74-20.5s1.92-15.8 5.8-20.5c3.8-4.7 9.4-7.1 16.7-7.1zm78.2 21.2v32.6h-8.6v-32.6c0-4.7-.85-8.2-2.5-10.4-1.66-2.2-4.25-3.3-7.8-3.3-4 0-7.1 1.4-9.3 4.3-2.16 2.9-3.25 7-3.25 12.3v29.7h-8.6V666h8.7v7.84c1.56-3 3.6-5.3 6.27-6.9 2.64-1.6 5.75-2.3 9.34-2.3 5.37 0 9.36 1.8 12 5.3 2.65 3.5 3.97 8.8 3.97 15.9zm26.8 13.6h16.5v19h-16.5z"/></svg>